<?xml version="1.0" encoding="UTF-8" standalone="no"?>
<!-- Created with Inkscape (http://www.inkscape.org/) -->

<svg
   version="1.1"
   id="svg1"
   width="620"
   height="403"
   viewBox="0 0 620 403"
   xmlns:xlink="http://www.w3.org/1999/xlink"
   xmlns="http://www.w3.org/2000/svg"
   xmlns:svg="http://www.w3.org/2000/svg">
  <defs
     id="defs1">
    <linearGradient
       id="linearGradient25">
      <stop
         style="stop-color:#b99d3a;stop-opacity:1;"
         offset="0"
         id="stop25" />
      <stop
         style="stop-color:#e5daa3;stop-opacity:1;"
         offset="0.73163188"
         id="stop26" />
    </linearGradient>
    <linearGradient
       xlink:href="#linearGradient25"
       id="linearGradient26"
       x1="-19.296642"
       y1="335.36008"
       x2="233.22983"
       y2="97.123856"
       gradientUnits="userSpaceOnUse" />
    <linearGradient
       xlink:href="#linearGradient25"
       id="linearGradient2"
       gradientUnits="userSpaceOnUse"
       x1="-19.296642"
       y1="335.36008"
       x2="233.22983"
       y2="97.123856" />
  </defs>
  <g
     id="g1">
    <g
       id="g21"
       style="fill:url(#linearGradient26);fill-opacity:1">
      <path
         style="fill:url(#linearGradient2);fill-opacity:1"
         d="m 458,392 c 0,-0.55 -0.64234,-1 -1.42742,-1 -2.32828,0 -5.43042,-4.75701 -11.73813,-18 C 428.72497,339.17828 419.26462,326.21521 406.38963,320.32084 390.88235,313.22137 373.93525,316.78183 327,337 c -39.06058,16.82602 -57.16247,22 -76.97008,22 -34.82896,0 -62.82336,-19.7168 -81.83755,-57.63917 C 161.31729,287.649 154.71362,268.55002 144.90167,234 c -10.41735,-36.6818 -19.94308,-61.44322 -26.25578,-68.25 -4.4417,-4.78933 -10.22846,-3.4951 -27.60603,6.1742 -32.642858,18.16327 -46.214285,23.1024 -63.339081,23.05135 -9.1866,-0.0274 -14.739052,-1.04556 -22.450779,-4.11692 L 0,188.76771 V 154.68386 C 0,134.98485 0.37172261,121.00094 0.88076983,121.55 c 0.48442337,0.5225 2.39692337,3.81284 4.24999997,7.31188 1.8530766,3.49903 5.6754432,8.89903 8.4941472,12 l 5.124918,5.63812 6.375082,-0.0374 c 5.604407,-0.0329 7.402638,-0.58443 14.875083,-4.56231 4.675,-2.48868 14.125,-8.04888 21,-12.35598 14.073309,-8.81675 27.367947,-15.32246 37,-18.10587 8.92417,-2.57886 25.39313,-2.57149 33,0.0148 20.38644,6.93117 35.54289,22.44819 48.26328,49.41147 6.42453,13.61803 10.26359,23.82304 17.16773,45.63535 17.95301,56.71915 24.53337,72.59481 34.02376,82.08521 6.29373,6.29372 9.66949,7.22045 20.28822,5.56959 9.33256,-1.4509 23.45741,-7.24441 49.8438,-20.44413 23.11442,-11.56294 35.23998,-16.90048 49.22703,-21.66922 42.78401,-14.58676 81.05605,-8.50186 113.68618,18.07505 23.48649,19.12951 46.83228,54.17376 57.61332,86.48308 2.92916,8.77829 3.3083,11.16335 3.34514,21.04315 C 524.52057,394.30157 527.49651,393 489.34501,393 469.115,393 458,392.6454 458,392 Z"
         id="path21" />
    </g>
  </g>
</svg>
