<svg width="709" height="160" viewBox="0 0 709 160" fill="none" xmlns="http://www.w3.org/2000/svg">
<path d="M12.0039 51.7656C12.0039 46.4596 12.5573 43.4974 13.6641 42.8789C13.9896 42.944 14.4453 42.9766 15.0312 42.9766H16.5938C17.6029 42.9766 19.263 42.944 21.5742 42.8789C23.8854 42.8138 25.6432 42.7812 26.8477 42.7812C31.4701 42.7812 35.1973 42.9766 38.0293 43.3672C40.8939 43.7253 42.5052 44.4089 42.8633 45.418L42.2773 95.8086H43.3516C45.9557 95.6784 47.7786 95.6296 48.8203 95.6621C49.862 95.6621 51.7663 95.7272 54.5332 95.8574C57.3327 95.9551 60.0182 96.0039 62.5898 96.0039C64.7057 96.0039 66.2682 96.1341 67.2773 96.3945C68.319 96.6224 68.8398 97.1107 68.8398 97.8594V116.609C68.4167 117.781 61.1576 118.367 47.0625 118.367H13.2734C12.4922 117.228 12.1016 115.405 12.1016 112.898V99.0312C12.1016 94.9622 12.1341 88.9401 12.1992 80.9648C12.2643 72.9896 12.2969 66.9674 12.2969 62.8984C12.2969 62.1497 12.248 60.4896 12.1504 57.918C12.0527 55.3464 12.0039 53.2956 12.0039 51.7656ZM72.2578 115.145V50.9844C72.2904 50.724 72.5508 50.4961 73.0391 50.3008C73.5273 50.0729 73.8203 49.9102 73.918 49.8125H100.188V113.387C100.025 114.07 99.862 114.542 99.6992 114.803C99.569 115.031 99.3411 115.145 99.0156 115.145H72.2578ZM174.406 110.555C174.146 111.759 171.932 112.85 167.766 113.826C163.632 114.77 159.497 115.438 155.363 115.828C151.262 116.219 148.007 116.414 145.598 116.414C143.059 116.414 140.845 116.349 138.957 116.219C137.102 116.089 134.872 115.812 132.268 115.389C129.696 114.933 127.222 114.184 124.846 113.143C122.469 112.068 120.24 110.717 118.156 109.09L116.105 107.332C115.552 106.941 114.999 106.355 114.445 105.574L112.883 103.523C108.977 97.3711 107.023 90.2096 107.023 82.0391C107.023 73.9336 109.074 67.0326 113.176 61.3359L114.543 59.6758V58.9922V59.0898C120.402 51.6029 130.07 47.8594 143.547 47.8594C145.5 47.8594 147.616 48.0384 149.895 48.3965C152.206 48.722 154.647 49.2591 157.219 50.0078C159.823 50.724 162.281 51.7982 164.592 53.2305C166.903 54.6628 168.742 56.3229 170.109 58.2109C170.793 59.1224 171.314 60.1478 171.672 61.2871C172.03 62.3939 172.355 63.8424 172.648 65.6328C172.974 67.3906 173.234 68.6927 173.43 69.5391C173.43 70.6458 172.388 71.1992 170.305 71.1992H166.301C165.389 71.1992 163.518 71.1504 160.686 71.0527C157.886 70.9551 155.656 70.9062 153.996 70.9062H148.625C148.169 70.7435 147.746 70.2389 147.355 69.3926C146.997 68.5137 146.77 68.0091 146.672 67.8789V67.9766C146.086 66.6745 144.784 66.0234 142.766 66.0234C141.431 66.0234 140.259 66.3164 139.25 66.9023C138.273 67.4557 137.525 68.1556 137.004 69.002C136.483 69.8158 136.06 70.8574 135.734 72.127C135.441 73.3639 135.246 74.5033 135.148 75.5449C135.083 76.5866 135.051 77.7747 135.051 79.1094C135.051 79.5651 135.067 80.1999 135.1 81.0137C135.132 81.8275 135.148 82.3646 135.148 82.625V86.3359C135.148 87.5078 135.181 88.5332 135.246 89.4121C135.344 90.291 135.555 91.2839 135.881 92.3906C136.206 93.4974 136.662 94.4089 137.248 95.125C137.834 95.8411 138.68 96.4434 139.787 96.9316C140.894 97.4199 142.212 97.6641 143.742 97.6641C146.932 97.6641 149.439 97.3711 151.262 96.7852V94.6367C151.262 94.3763 151.245 94.0345 151.213 93.6113C151.18 93.1882 151.164 92.8464 151.164 92.5859C151.164 92.5208 151.18 92.3581 151.213 92.0977C151.245 91.8372 151.262 91.6094 151.262 91.4141H149.406C149.146 91.4141 148.82 91.4303 148.43 91.4629C148.039 91.4954 147.779 91.5117 147.648 91.5117H143.547L141.887 89.6562C141.822 89.3307 141.789 88.8424 141.789 88.1914V85.1641C141.789 84.7734 141.805 84.1712 141.838 83.3574C141.87 82.5436 141.887 81.8763 141.887 81.3555V79.9883C141.887 79.9232 141.903 79.7767 141.936 79.5488C141.968 79.321 141.984 79.1094 141.984 78.9141V78.5234C141.984 77.9375 142.098 77.4655 142.326 77.1074C142.554 76.7493 142.993 76.375 143.645 75.9844H148.234C148.56 75.9844 149.048 76.0495 149.699 76.1797H154.094C157.349 76.3099 159.758 76.375 161.32 76.375H166.008C170.956 76.375 173.885 76.8307 174.797 77.7422C174.797 80.8672 174.732 85.6198 174.602 92C174.471 98.3802 174.406 103.133 174.406 106.258V110.555ZM245.793 51.8633V111.922C245.793 112.605 245.76 113.159 245.695 113.582C245.663 113.973 245.533 114.347 245.305 114.705C245.077 115.063 244.751 115.242 244.328 115.242H219.426V114.168C219.361 114.103 219.1 113.956 218.645 113.729C218.221 113.501 217.961 113.289 217.863 113.094V93.3672C217.863 92.651 217.798 92.2441 217.668 92.1465C217.57 92.0488 217.115 92 216.301 92H212.98C212.199 92 211.288 92.0651 210.246 92.1953V113.289C210.116 113.875 209.855 114.249 209.465 114.412C209.107 114.575 208.553 114.656 207.805 114.656H205.559C204.029 114.656 201.62 114.689 198.332 114.754C195.077 114.819 192.603 114.852 190.91 114.852H184.465C183.065 114.852 182.365 114.07 182.365 112.508L182.658 50.9844C182.658 50.8216 182.707 50.6914 182.805 50.5938C182.902 50.4635 183.098 50.3008 183.391 50.1055C183.684 49.8776 183.846 49.7474 183.879 49.7148H210.148V70.7109H218.645V49.2266H243.547C244.328 49.2266 244.898 49.4056 245.256 49.7637C245.614 50.1217 245.793 50.8216 245.793 51.8633ZM250.285 67.5859V50.0078H307.121C307.642 50.1055 307.967 50.3171 308.098 50.6426C308.228 50.9355 308.293 51.375 308.293 51.9609V67.5859C308.228 68.3672 307.772 68.7578 306.926 68.7578H293.059V113.68C293.059 113.712 293.042 113.794 293.01 113.924C292.977 114.054 292.961 114.135 292.961 114.168C292.961 114.201 292.945 114.266 292.912 114.363C292.88 114.461 292.847 114.526 292.814 114.559C292.782 114.591 292.749 114.656 292.717 114.754C292.684 114.819 292.635 114.868 292.57 114.9C292.538 114.9 292.473 114.933 292.375 114.998C292.31 115.031 292.229 115.063 292.131 115.096C292.066 115.128 291.968 115.161 291.838 115.193C291.74 115.193 291.626 115.21 291.496 115.242H288.371C284.204 115.242 282.121 115.112 282.121 114.852C281.861 114.852 281.47 114.868 280.949 114.9C280.428 114.933 280.038 114.949 279.777 114.949H275.871C275.122 114.949 274.048 114.965 272.648 114.998C271.281 115.031 270.207 115.047 269.426 115.047H266.691L264.738 113.68V103.133C264.771 101.245 264.901 97.2083 265.129 91.0234C265.389 84.8385 265.52 79.9557 265.52 76.375V75.1055C265.52 74.8451 265.536 74.4382 265.568 73.8848C265.601 73.3314 265.617 72.9245 265.617 72.6641C265.617 72.3711 265.601 71.7852 265.568 70.9062C265.536 69.9948 265.52 69.4089 265.52 69.1484H253.312C252.596 69.1484 251.913 69.0345 251.262 68.8066C250.611 68.5462 250.285 68.1393 250.285 67.5859ZM338.957 75.2031L343.742 54.5C343.84 54.1419 343.97 53.6374 344.133 52.9863C344.426 51.6842 344.654 50.7402 344.816 50.1543C344.979 49.5358 345.191 48.7708 345.451 47.8594C345.744 46.9479 345.988 46.2969 346.184 45.9062C346.411 45.4831 346.688 45.0436 347.014 44.5879C347.339 44.0996 347.697 43.7741 348.088 43.6113C348.479 43.4486 348.918 43.3672 349.406 43.3672H363.371C368.84 43.3672 371.574 43.8229 371.574 44.7344V45.125C371.509 45.125 371.477 45.1901 371.477 45.3203C367.245 57.3646 364.673 64.7539 363.762 67.4883L361.027 74.7148C360.604 75.5612 357.284 75.9844 351.066 75.9844H346.77C346.509 75.9844 346.102 76.0007 345.549 76.0332C345.028 76.0658 344.621 76.082 344.328 76.082C343.482 76.082 342.831 76.0495 342.375 75.9844H340.52V75.2031H338.957ZM377.824 115.242V113.387C377.824 107.82 377.889 99.6009 378.02 88.7285C378.15 77.8561 378.215 69.6367 378.215 64.0703V43.8555H435.051V59.8711C435.051 59.9688 435.051 60.2129 435.051 60.6035C435.051 60.9941 435.051 61.2546 435.051 61.3848C435.051 61.515 435.035 61.7591 435.002 62.1172C434.969 62.4427 434.904 62.6706 434.807 62.8008C434.742 62.931 434.628 63.1263 434.465 63.3867C434.335 63.6146 434.172 63.7773 433.977 63.875C433.781 63.9727 433.521 64.0703 433.195 64.168C432.87 64.2331 432.512 64.2656 432.121 64.2656H430.754C422.323 64.2656 414.641 64.1354 407.707 63.875C407.642 64.3958 407.528 65.2096 407.365 66.3164C407.235 67.3906 407.121 68.3509 407.023 69.1973C406.958 70.0111 406.926 70.8086 406.926 71.5898H430.168C431.145 71.5898 431.796 71.7201 432.121 71.9805C432.447 72.2409 432.609 72.6641 432.609 73.25C432.609 73.4128 432.593 73.6732 432.561 74.0312C432.528 74.3893 432.512 74.6497 432.512 74.8125C432.512 76.375 432.561 78.6862 432.658 81.7461C432.756 84.806 432.805 87.1172 432.805 88.6797C432.707 89.3307 432.447 89.6562 432.023 89.6562C431.828 89.6562 431.665 89.5911 431.535 89.4609C421.249 89.9818 413.632 90.2422 408.684 90.2422H407.414V97.2734C410.311 97.2734 414.494 97.1432 419.963 96.8828C425.464 96.6224 429.582 96.4922 432.316 96.4922C434.465 96.4922 435.702 96.9479 436.027 97.8594V101.57C436.027 103.133 436.06 105.444 436.125 108.504C436.19 111.564 436.223 113.875 436.223 115.438C436.223 117.065 435.572 117.879 434.27 117.879C432.577 117.879 429.973 117.863 426.457 117.83C422.941 117.798 420.272 117.781 418.449 117.781C413.762 117.781 407.056 117.895 398.332 118.123C389.608 118.383 383.293 118.53 379.387 118.562L378.02 117C377.889 116.089 377.824 115.503 377.824 115.242ZM477.141 50.0078C477.368 49.9427 477.727 49.8939 478.215 49.8613C478.736 49.7962 479.061 49.7474 479.191 49.7148L485.002 79.4512L492.619 49.6172H526.945C527.857 49.6172 528.312 51.5378 528.312 55.3789V112.898C528.247 113.419 528.101 113.842 527.873 114.168C527.645 114.493 527.303 114.721 526.848 114.852C526.424 114.949 526.083 115.014 525.822 115.047C525.594 115.047 525.188 115.047 524.602 115.047C522.551 115.047 519.426 115.079 515.227 115.145C511.06 115.21 507.935 115.242 505.852 115.242C504.224 114.233 503.41 110.49 503.41 104.012C503.41 102.384 503.443 100.268 503.508 97.6641C503.573 95.0273 503.605 93.0742 503.605 91.8047V87.5078C503.605 87.2799 503.589 86.9219 503.557 86.4336C503.524 85.9128 503.508 85.5221 503.508 85.2617C503.508 84.1549 503.573 82.3646 503.703 79.8906V83.6016C503.247 85.5221 502.368 88.4518 501.066 92.3906C499.764 96.3294 498.885 99.2591 498.43 101.18L495.5 113.68C494.979 114.591 493.352 115.047 490.617 115.047C489.283 115.047 487.541 115.014 485.393 114.949C483.277 114.884 481.665 114.852 480.559 114.852C480.233 114.852 479.68 114.868 478.898 114.9C478.117 114.933 477.629 114.949 477.434 114.949C476.392 114.949 475.643 114.819 475.188 114.559C474.732 114.298 474.406 113.777 474.211 112.996C471.151 99.4219 469.035 89.819 467.863 84.1875L466.105 75.7891C465.65 85.2617 465.422 95.2878 465.422 105.867V114.461H442.375C442.375 114.266 442.424 113.842 442.521 113.191C442.619 112.54 442.668 112.182 442.668 112.117C442.408 105.867 442.277 98.1523 442.277 88.9727C442.277 86.2057 442.261 82.5273 442.229 77.9375C442.196 73.3151 442.18 70.125 442.18 68.3672V51.082C442.18 50.6589 442.245 50.3496 442.375 50.1543C442.505 49.9264 442.831 49.6172 443.352 49.2266H447.844C449.471 49.2266 450.643 49.194 451.359 49.1289C454.647 49.1289 458.635 49.2754 463.322 49.5684C468.042 49.8613 470.988 50.0078 472.16 50.0078H477.141ZM503.703 79.5977V79.5V79.5977ZM567.961 92.6836C568.091 76.668 568.156 64.7214 568.156 56.8438V56.2578C568.156 56.0299 568.124 55.2324 568.059 53.8652C567.993 52.4655 567.961 51.2773 567.961 50.3008C567.961 46.3945 568.286 44.181 568.938 43.6602C569.1 43.6602 569.344 43.6764 569.67 43.709C569.995 43.7415 570.24 43.7578 570.402 43.7578C575.871 43.4974 582.219 43.3672 589.445 43.3672H596.086C596.346 43.3997 596.688 43.5137 597.111 43.709C597.567 43.8717 597.876 43.9531 598.039 43.9531C598.072 45.5482 598.137 48.2988 598.234 52.2051C598.365 56.1113 598.446 59.4967 598.479 62.3613C598.544 65.2259 598.56 68.0417 598.527 70.8086V89.8516C598.527 91.056 598.56 92.0326 598.625 92.7812C598.69 93.5299 598.837 94.4089 599.064 95.418C599.325 96.4271 599.764 97.1921 600.383 97.7129C601.034 98.2012 601.848 98.4453 602.824 98.4453C604.191 98.4453 605.298 97.8757 606.145 96.7363C606.991 95.5645 607.414 94.2135 607.414 92.6836V74.8125C607.382 72.6315 607.398 69.1973 607.463 64.5098C607.561 59.8223 607.577 56.1602 607.512 53.5234V50.0078C607.512 49.6497 607.479 49.1126 607.414 48.3965C607.349 47.6478 607.316 47.0781 607.316 46.6875V44.3438C607.414 43.5951 607.837 43.1393 608.586 42.9766C614.836 42.9766 624.211 43.0417 636.711 43.1719V43.9531H638.859C638.599 50.8867 638.469 58.9596 638.469 68.1719V79.1094C638.469 80.5742 638.436 82.8203 638.371 85.8477C638.306 88.875 638.273 91.1211 638.273 92.5859C638.273 96.8177 637.606 100.561 636.271 103.816C634.937 107.072 633.179 109.692 630.998 111.678C628.817 113.663 626.18 115.291 623.088 116.561C619.995 117.83 616.87 118.709 613.713 119.197C610.555 119.686 607.154 119.93 603.508 119.93C599.992 119.93 596.688 119.702 593.596 119.246C590.536 118.823 587.427 117.993 584.27 116.756C581.112 115.486 578.394 113.875 576.115 111.922C573.837 109.969 571.949 107.348 570.451 104.061C568.954 100.773 568.124 96.9805 567.961 92.6836ZM647.355 115.047L646.33 82.5273C646.33 80.2812 646.363 77.7422 646.428 74.9102C646.493 72.0781 646.574 69.5228 646.672 67.2441C646.77 64.9655 646.851 62.3776 646.916 59.4805C647.014 56.5833 647.062 53.9466 647.062 51.5703C647.062 50.9193 647.274 50.5124 647.697 50.3496C648.153 50.1543 648.706 50.0892 649.357 50.1543C650.041 50.2194 650.806 50.1706 651.652 50.0078H686.613C688.599 50.0078 690.585 50.2682 692.57 50.7891C694.556 51.2773 696.493 52.0911 698.381 53.2305C700.301 54.3372 701.978 55.7044 703.41 57.332C704.875 58.9271 706.047 60.929 706.926 63.3379C707.837 65.7467 708.293 68.3997 708.293 71.2969C708.293 75.138 707.479 78.556 705.852 81.5508C704.224 84.513 701.783 87.3125 698.527 89.9492C694.523 92.0326 689.706 93.237 684.074 93.5625H682.512C681.21 93.8229 679.908 93.9531 678.605 93.9531H674.699C674.504 93.9531 674.341 93.9857 674.211 94.0508C674.211 102.579 674.341 109.025 674.602 113.387C674.439 114.038 674.081 114.477 673.527 114.705C673.007 114.933 672.095 115.047 670.793 115.047H647.355ZM671.77 77.7422V78.6211C671.802 78.6536 672.014 78.7676 672.404 78.9629C672.827 79.1257 673.039 79.2396 673.039 79.3047V79.4023C672.974 79.4023 672.941 79.3372 672.941 79.207C673.007 79.2721 673.202 79.3047 673.527 79.3047C676.424 79.3047 678.866 78.6536 680.852 77.3516C682.87 76.0495 683.879 74.0312 683.879 71.2969C683.879 70.0599 683.667 69.002 683.244 68.123C682.821 67.2441 682.3 66.5768 681.682 66.1211C681.096 65.6328 680.282 65.2747 679.24 65.0469C678.231 64.7865 677.303 64.6237 676.457 64.5586C675.611 64.4935 674.536 64.4609 673.234 64.4609C673.202 64.4935 673.072 64.6074 672.844 64.8027C672.616 64.998 672.453 65.1445 672.355 65.2422V70.3203C671.965 73.4453 671.77 75.9193 671.77 77.7422Z" fill="#FF0004"/>
<path d="M5.00391 44.7656C5.00391 39.4596 5.55729 36.4974 6.66406 35.8789C6.98958 35.944 7.44531 35.9766 8.03125 35.9766H9.59375C10.6029 35.9766 12.263 35.944 14.5742 35.8789C16.8854 35.8138 18.6432 35.7812 19.8477 35.7812C24.4701 35.7812 28.1973 35.9766 31.0293 36.3672C33.8939 36.7253 35.5052 37.4089 35.8633 38.418L35.2773 88.8086H36.3516C38.9557 88.6784 40.7786 88.6296 41.8203 88.6621C42.862 88.6621 44.7663 88.7272 47.5332 88.8574C50.3327 88.9551 53.0182 89.0039 55.5898 89.0039C57.7057 89.0039 59.2682 89.1341 60.2773 89.3945C61.319 89.6224 61.8398 90.1107 61.8398 90.8594V109.609C61.4167 110.781 54.1576 111.367 40.0625 111.367H6.27344C5.49219 110.228 5.10156 108.405 5.10156 105.898V92.0312C5.10156 87.9622 5.13411 81.9401 5.19922 73.9648C5.26432 65.9896 5.29688 59.9674 5.29688 55.8984C5.29688 55.1497 5.24805 53.4896 5.15039 50.918C5.05273 48.3464 5.00391 46.2956 5.00391 44.7656ZM65.2578 108.145V43.9844C65.2904 43.724 65.5508 43.4961 66.0391 43.3008C66.5273 43.0729 66.8203 42.9102 66.918 42.8125H93.1875V106.387C93.0247 107.07 92.862 107.542 92.6992 107.803C92.569 108.031 92.3411 108.145 92.0156 108.145H65.2578ZM167.406 103.555C167.146 104.759 164.932 105.85 160.766 106.826C156.632 107.77 152.497 108.438 148.363 108.828C144.262 109.219 141.007 109.414 138.598 109.414C136.059 109.414 133.845 109.349 131.957 109.219C130.102 109.089 127.872 108.812 125.268 108.389C122.696 107.933 120.222 107.184 117.846 106.143C115.469 105.068 113.24 103.717 111.156 102.09L109.105 100.332C108.552 99.9414 107.999 99.3555 107.445 98.5742L105.883 96.5234C101.977 90.3711 100.023 83.2096 100.023 75.0391C100.023 66.9336 102.074 60.0326 106.176 54.3359L107.543 52.6758V51.9922V52.0898C113.402 44.6029 123.07 40.8594 136.547 40.8594C138.5 40.8594 140.616 41.0384 142.895 41.3965C145.206 41.722 147.647 42.2591 150.219 43.0078C152.823 43.724 155.281 44.7982 157.592 46.2305C159.903 47.6628 161.742 49.3229 163.109 51.2109C163.793 52.1224 164.314 53.1478 164.672 54.2871C165.03 55.3939 165.355 56.8424 165.648 58.6328C165.974 60.3906 166.234 61.6927 166.43 62.5391C166.43 63.6458 165.388 64.1992 163.305 64.1992H159.301C158.389 64.1992 156.518 64.1504 153.686 64.0527C150.886 63.9551 148.656 63.9062 146.996 63.9062H141.625C141.169 63.7435 140.746 63.2389 140.355 62.3926C139.997 61.5137 139.77 61.0091 139.672 60.8789V60.9766C139.086 59.6745 137.784 59.0234 135.766 59.0234C134.431 59.0234 133.259 59.3164 132.25 59.9023C131.273 60.4557 130.525 61.1556 130.004 62.002C129.483 62.8158 129.06 63.8574 128.734 65.127C128.441 66.3639 128.246 67.5033 128.148 68.5449C128.083 69.5866 128.051 70.7747 128.051 72.1094C128.051 72.5651 128.067 73.1999 128.1 74.0137C128.132 74.8275 128.148 75.3646 128.148 75.625V79.3359C128.148 80.5078 128.181 81.5332 128.246 82.4121C128.344 83.291 128.555 84.2839 128.881 85.3906C129.206 86.4974 129.662 87.4089 130.248 88.125C130.834 88.8411 131.68 89.4434 132.787 89.9316C133.894 90.4199 135.212 90.6641 136.742 90.6641C139.932 90.6641 142.439 90.3711 144.262 89.7852V87.6367C144.262 87.3763 144.245 87.0345 144.213 86.6113C144.18 86.1882 144.164 85.8464 144.164 85.5859C144.164 85.5208 144.18 85.3581 144.213 85.0977C144.245 84.8372 144.262 84.6094 144.262 84.4141H142.406C142.146 84.4141 141.82 84.4303 141.43 84.4629C141.039 84.4954 140.779 84.5117 140.648 84.5117H136.547L134.887 82.6562C134.822 82.3307 134.789 81.8424 134.789 81.1914V78.1641C134.789 77.7734 134.805 77.1712 134.838 76.3574C134.87 75.5436 134.887 74.8763 134.887 74.3555V72.9883C134.887 72.9232 134.903 72.7767 134.936 72.5488C134.968 72.321 134.984 72.1094 134.984 71.9141V71.5234C134.984 70.9375 135.098 70.4655 135.326 70.1074C135.554 69.7493 135.993 69.375 136.645 68.9844H141.234C141.56 68.9844 142.048 69.0495 142.699 69.1797H147.094C150.349 69.3099 152.758 69.375 154.32 69.375H159.008C163.956 69.375 166.885 69.8307 167.797 70.7422C167.797 73.8672 167.732 78.6198 167.602 85C167.471 91.3802 167.406 96.1328 167.406 99.2578V103.555ZM238.793 44.8633V104.922C238.793 105.605 238.76 106.159 238.695 106.582C238.663 106.973 238.533 107.347 238.305 107.705C238.077 108.063 237.751 108.242 237.328 108.242H212.426V107.168C212.361 107.103 212.1 106.956 211.645 106.729C211.221 106.501 210.961 106.289 210.863 106.094V86.3672C210.863 85.651 210.798 85.2441 210.668 85.1465C210.57 85.0488 210.115 85 209.301 85H205.98C205.199 85 204.288 85.0651 203.246 85.1953V106.289C203.116 106.875 202.855 107.249 202.465 107.412C202.107 107.575 201.553 107.656 200.805 107.656H198.559C197.029 107.656 194.62 107.689 191.332 107.754C188.077 107.819 185.603 107.852 183.91 107.852H177.465C176.065 107.852 175.365 107.07 175.365 105.508L175.658 43.9844C175.658 43.8216 175.707 43.6914 175.805 43.5938C175.902 43.4635 176.098 43.3008 176.391 43.1055C176.684 42.8776 176.846 42.7474 176.879 42.7148H203.148V63.7109H211.645V42.2266H236.547C237.328 42.2266 237.898 42.4056 238.256 42.7637C238.614 43.1217 238.793 43.8216 238.793 44.8633ZM243.285 60.5859V43.0078H300.121C300.642 43.1055 300.967 43.3171 301.098 43.6426C301.228 43.9355 301.293 44.375 301.293 44.9609V60.5859C301.228 61.3672 300.772 61.7578 299.926 61.7578H286.059V106.68C286.059 106.712 286.042 106.794 286.01 106.924C285.977 107.054 285.961 107.135 285.961 107.168C285.961 107.201 285.945 107.266 285.912 107.363C285.88 107.461 285.847 107.526 285.814 107.559C285.782 107.591 285.749 107.656 285.717 107.754C285.684 107.819 285.635 107.868 285.57 107.9C285.538 107.9 285.473 107.933 285.375 107.998C285.31 108.031 285.229 108.063 285.131 108.096C285.066 108.128 284.968 108.161 284.838 108.193C284.74 108.193 284.626 108.21 284.496 108.242H281.371C277.204 108.242 275.121 108.112 275.121 107.852C274.861 107.852 274.47 107.868 273.949 107.9C273.428 107.933 273.038 107.949 272.777 107.949H268.871C268.122 107.949 267.048 107.965 265.648 107.998C264.281 108.031 263.207 108.047 262.426 108.047H259.691L257.738 106.68V96.1328C257.771 94.2448 257.901 90.2083 258.129 84.0234C258.389 77.8385 258.52 72.9557 258.52 69.375V68.1055C258.52 67.8451 258.536 67.4382 258.568 66.8848C258.601 66.3314 258.617 65.9245 258.617 65.6641C258.617 65.3711 258.601 64.7852 258.568 63.9062C258.536 62.9948 258.52 62.4089 258.52 62.1484H246.312C245.596 62.1484 244.913 62.0345 244.262 61.8066C243.611 61.5462 243.285 61.1393 243.285 60.5859ZM331.957 68.2031L336.742 47.5C336.84 47.1419 336.97 46.6374 337.133 45.9863C337.426 44.6842 337.654 43.7402 337.816 43.1543C337.979 42.5358 338.191 41.7708 338.451 40.8594C338.744 39.9479 338.988 39.2969 339.184 38.9062C339.411 38.4831 339.688 38.0436 340.014 37.5879C340.339 37.0996 340.697 36.7741 341.088 36.6113C341.479 36.4486 341.918 36.3672 342.406 36.3672H356.371C361.84 36.3672 364.574 36.8229 364.574 37.7344V38.125C364.509 38.125 364.477 38.1901 364.477 38.3203C360.245 50.3646 357.673 57.7539 356.762 60.4883L354.027 67.7148C353.604 68.5612 350.284 68.9844 344.066 68.9844H339.77C339.509 68.9844 339.102 69.0007 338.549 69.0332C338.028 69.0658 337.621 69.082 337.328 69.082C336.482 69.082 335.831 69.0495 335.375 68.9844H333.52V68.2031H331.957ZM370.824 108.242V106.387C370.824 100.82 370.889 92.6009 371.02 81.7285C371.15 70.8561 371.215 62.6367 371.215 57.0703V36.8555H428.051V52.8711C428.051 52.9688 428.051 53.2129 428.051 53.6035C428.051 53.9941 428.051 54.2546 428.051 54.3848C428.051 54.515 428.035 54.7591 428.002 55.1172C427.969 55.4427 427.904 55.6706 427.807 55.8008C427.742 55.931 427.628 56.1263 427.465 56.3867C427.335 56.6146 427.172 56.7773 426.977 56.875C426.781 56.9727 426.521 57.0703 426.195 57.168C425.87 57.2331 425.512 57.2656 425.121 57.2656H423.754C415.323 57.2656 407.641 57.1354 400.707 56.875C400.642 57.3958 400.528 58.2096 400.365 59.3164C400.235 60.3906 400.121 61.3509 400.023 62.1973C399.958 63.0111 399.926 63.8086 399.926 64.5898H423.168C424.145 64.5898 424.796 64.7201 425.121 64.9805C425.447 65.2409 425.609 65.6641 425.609 66.25C425.609 66.4128 425.593 66.6732 425.561 67.0312C425.528 67.3893 425.512 67.6497 425.512 67.8125C425.512 69.375 425.561 71.6862 425.658 74.7461C425.756 77.806 425.805 80.1172 425.805 81.6797C425.707 82.3307 425.447 82.6562 425.023 82.6562C424.828 82.6562 424.665 82.5911 424.535 82.4609C414.249 82.9818 406.632 83.2422 401.684 83.2422H400.414V90.2734C403.311 90.2734 407.494 90.1432 412.963 89.8828C418.464 89.6224 422.582 89.4922 425.316 89.4922C427.465 89.4922 428.702 89.9479 429.027 90.8594V94.5703C429.027 96.1328 429.06 98.444 429.125 101.504C429.19 104.564 429.223 106.875 429.223 108.438C429.223 110.065 428.572 110.879 427.27 110.879C425.577 110.879 422.973 110.863 419.457 110.83C415.941 110.798 413.272 110.781 411.449 110.781C406.762 110.781 400.056 110.895 391.332 111.123C382.608 111.383 376.293 111.53 372.387 111.562L371.02 110C370.889 109.089 370.824 108.503 370.824 108.242ZM470.141 43.0078C470.368 42.9427 470.727 42.8939 471.215 42.8613C471.736 42.7962 472.061 42.7474 472.191 42.7148L478.002 72.4512L485.619 42.6172H519.945C520.857 42.6172 521.312 44.5378 521.312 48.3789V105.898C521.247 106.419 521.101 106.842 520.873 107.168C520.645 107.493 520.303 107.721 519.848 107.852C519.424 107.949 519.083 108.014 518.822 108.047C518.594 108.047 518.188 108.047 517.602 108.047C515.551 108.047 512.426 108.079 508.227 108.145C504.06 108.21 500.935 108.242 498.852 108.242C497.224 107.233 496.41 103.49 496.41 97.0117C496.41 95.3841 496.443 93.2682 496.508 90.6641C496.573 88.0273 496.605 86.0742 496.605 84.8047V80.5078C496.605 80.2799 496.589 79.9219 496.557 79.4336C496.524 78.9128 496.508 78.5221 496.508 78.2617C496.508 77.1549 496.573 75.3646 496.703 72.8906V76.6016C496.247 78.5221 495.368 81.4518 494.066 85.3906C492.764 89.3294 491.885 92.2591 491.43 94.1797L488.5 106.68C487.979 107.591 486.352 108.047 483.617 108.047C482.283 108.047 480.541 108.014 478.393 107.949C476.277 107.884 474.665 107.852 473.559 107.852C473.233 107.852 472.68 107.868 471.898 107.9C471.117 107.933 470.629 107.949 470.434 107.949C469.392 107.949 468.643 107.819 468.188 107.559C467.732 107.298 467.406 106.777 467.211 105.996C464.151 92.4219 462.035 82.819 460.863 77.1875L459.105 68.7891C458.65 78.2617 458.422 88.2878 458.422 98.8672V107.461H435.375C435.375 107.266 435.424 106.842 435.521 106.191C435.619 105.54 435.668 105.182 435.668 105.117C435.408 98.8672 435.277 91.1523 435.277 81.9727C435.277 79.2057 435.261 75.5273 435.229 70.9375C435.196 66.3151 435.18 63.125 435.18 61.3672V44.082C435.18 43.6589 435.245 43.3496 435.375 43.1543C435.505 42.9264 435.831 42.6172 436.352 42.2266H440.844C442.471 42.2266 443.643 42.194 444.359 42.1289C447.647 42.1289 451.635 42.2754 456.322 42.5684C461.042 42.8613 463.988 43.0078 465.16 43.0078H470.141ZM496.703 72.5977V72.5V72.5977ZM560.961 85.6836C561.091 69.668 561.156 57.7214 561.156 49.8438V49.2578C561.156 49.0299 561.124 48.2324 561.059 46.8652C560.993 45.4655 560.961 44.2773 560.961 43.3008C560.961 39.3945 561.286 37.181 561.938 36.6602C562.1 36.6602 562.344 36.6764 562.67 36.709C562.995 36.7415 563.24 36.7578 563.402 36.7578C568.871 36.4974 575.219 36.3672 582.445 36.3672H589.086C589.346 36.3997 589.688 36.5137 590.111 36.709C590.567 36.8717 590.876 36.9531 591.039 36.9531C591.072 38.5482 591.137 41.2988 591.234 45.2051C591.365 49.1113 591.446 52.4967 591.479 55.3613C591.544 58.2259 591.56 61.0417 591.527 63.8086V82.8516C591.527 84.056 591.56 85.0326 591.625 85.7812C591.69 86.5299 591.837 87.4089 592.064 88.418C592.325 89.4271 592.764 90.1921 593.383 90.7129C594.034 91.2012 594.848 91.4453 595.824 91.4453C597.191 91.4453 598.298 90.8757 599.145 89.7363C599.991 88.5645 600.414 87.2135 600.414 85.6836V67.8125C600.382 65.6315 600.398 62.1973 600.463 57.5098C600.561 52.8223 600.577 49.1602 600.512 46.5234V43.0078C600.512 42.6497 600.479 42.1126 600.414 41.3965C600.349 40.6478 600.316 40.0781 600.316 39.6875V37.3438C600.414 36.5951 600.837 36.1393 601.586 35.9766C607.836 35.9766 617.211 36.0417 629.711 36.1719V36.9531H631.859C631.599 43.8867 631.469 51.9596 631.469 61.1719V72.1094C631.469 73.5742 631.436 75.8203 631.371 78.8477C631.306 81.875 631.273 84.1211 631.273 85.5859C631.273 89.8177 630.606 93.5612 629.271 96.8164C627.937 100.072 626.179 102.692 623.998 104.678C621.817 106.663 619.18 108.291 616.088 109.561C612.995 110.83 609.87 111.709 606.713 112.197C603.555 112.686 600.154 112.93 596.508 112.93C592.992 112.93 589.688 112.702 586.596 112.246C583.536 111.823 580.427 110.993 577.27 109.756C574.112 108.486 571.394 106.875 569.115 104.922C566.837 102.969 564.949 100.348 563.451 97.0605C561.954 93.7728 561.124 89.9805 560.961 85.6836ZM640.355 108.047L639.33 75.5273C639.33 73.2812 639.363 70.7422 639.428 67.9102C639.493 65.0781 639.574 62.5228 639.672 60.2441C639.77 57.9655 639.851 55.3776 639.916 52.4805C640.014 49.5833 640.062 46.9466 640.062 44.5703C640.062 43.9193 640.274 43.5124 640.697 43.3496C641.153 43.1543 641.706 43.0892 642.357 43.1543C643.041 43.2194 643.806 43.1706 644.652 43.0078H679.613C681.599 43.0078 683.585 43.2682 685.57 43.7891C687.556 44.2773 689.493 45.0911 691.381 46.2305C693.301 47.3372 694.978 48.7044 696.41 50.332C697.875 51.9271 699.047 53.929 699.926 56.3379C700.837 58.7467 701.293 61.3997 701.293 64.2969C701.293 68.138 700.479 71.556 698.852 74.5508C697.224 77.513 694.783 80.3125 691.527 82.9492C687.523 85.0326 682.706 86.237 677.074 86.5625H675.512C674.21 86.8229 672.908 86.9531 671.605 86.9531H667.699C667.504 86.9531 667.341 86.9857 667.211 87.0508C667.211 95.5794 667.341 102.025 667.602 106.387C667.439 107.038 667.081 107.477 666.527 107.705C666.007 107.933 665.095 108.047 663.793 108.047H640.355ZM664.77 70.7422V71.6211C664.802 71.6536 665.014 71.7676 665.404 71.9629C665.827 72.1257 666.039 72.2396 666.039 72.3047V72.4023C665.974 72.4023 665.941 72.3372 665.941 72.207C666.007 72.2721 666.202 72.3047 666.527 72.3047C669.424 72.3047 671.866 71.6536 673.852 70.3516C675.87 69.0495 676.879 67.0312 676.879 64.2969C676.879 63.0599 676.667 62.002 676.244 61.123C675.821 60.2441 675.3 59.5768 674.682 59.1211C674.096 58.6328 673.282 58.2747 672.24 58.0469C671.231 57.7865 670.303 57.6237 669.457 57.5586C668.611 57.4935 667.536 57.4609 666.234 57.4609C666.202 57.4935 666.072 57.6074 665.844 57.8027C665.616 57.998 665.453 58.1445 665.355 58.2422V63.3203C664.965 66.4453 664.77 68.9193 664.77 70.7422Z" fill="#F7FF00"/>
</svg>
