<?xml version="1.0" standalone="no"?>
<!DOCTYPE svg PUBLIC "-//W3C//DTD SVG 20010904//EN"
 "http://www.w3.org/TR/2001/REC-SVG-20010904/DTD/svg10.dtd">
<svg version="1.0" xmlns="http://www.w3.org/2000/svg"
 width="700.000000pt" height="700.000000pt" viewBox="0 0 700.000000 700.000000"
 preserveAspectRatio="xMidYMid meet">
<metadata>
Created by potrace 1.14, written by Peter Selinger 2001-2017
</metadata>
<g transform="translate(0.000000,700.000000) scale(0.100000,-0.100000)"
fill="#000000" stroke="none">
<path d="M3960 5680 c-9 -6 -10 -10 -3 -10 6 0 15 5 18 10 8 12 4 12 -15 0z"/>
<path d="M3600 5640 c-9 -6 -10 -10 -3 -10 6 0 15 5 18 10 8 12 4 12 -15 0z"/>
<path d="M4315 5501 c-3 -5 -2 -12 3 -15 5 -3 9 1 9 9 0 17 -3 19 -12 6z"/>
<path d="M4386 5482 c-3 -5 1 -9 9 -9 8 0 12 4 9 9 -3 4 -7 8 -9 8 -2 0 -6 -4
-9 -8z"/>
<path d="M4250 5446 c0 -2 7 -7 16 -10 8 -3 12 -2 9 4 -6 10 -25 14 -25 6z"/>
<path d="M4336 5398 c3 -5 10 -6 15 -3 13 9 11 12 -6 12 -8 0 -12 -4 -9 -9z"/>
<path d="M4576 5367 c3 -10 9 -15 12 -12 3 3 0 11 -7 18 -10 9 -11 8 -5 -6z"/>
<path d="M3376 5278 c3 -5 10 -6 15 -3 13 9 11 12 -6 12 -8 0 -12 -4 -9 -9z"/>
<path d="M4159 5278 c-5 -18 -6 -38 -1 -34 7 8 12 36 6 36 -2 0 -4 -1 -5 -2z"/>
<path d="M4606 5238 c3 -5 10 -6 15 -3 13 9 11 12 -6 12 -8 0 -12 -4 -9 -9z"/>
<path d="M3550 5141 c0 -6 4 -13 10 -16 6 -3 7 1 4 9 -7 18 -14 21 -14 7z"/>
<path d="M3873 5113 c4 -6 -11 -10 -36 -11 -23 -1 -52 -4 -64 -6 -13 -3 -23 0
-23 5 0 6 -6 7 -12 2 -17 -10 -28 -11 -120 -17 -42 -2 -82 -7 -87 -11 -6 -3
-11 0 -11 7 0 11 -2 11 -9 0 -5 -8 -32 -14 -73 -15 -36 -1 -64 -5 -61 -9 2 -5
-6 -9 -19 -9 -52 -3 -74 -6 -91 -14 -9 -4 -26 -5 -37 -2 -11 3 -18 1 -14 -4 3
-5 -3 -9 -13 -9 -10 0 -48 -11 -85 -24 -37 -13 -69 -21 -72 -18 -4 3 -6 1 -6
-5 0 -5 -26 -22 -57 -36 -77 -36 -177 -112 -249 -189 -32 -35 -61 -62 -66 -61
-4 2 -7 0 -7 -5 3 -19 -3 -33 -33 -66 -17 -19 -36 -33 -41 -29 -6 3 -7 2 -4
-3 3 -6 -10 -30 -30 -54 -19 -25 -46 -64 -60 -88 -14 -23 -29 -40 -34 -36 -5
3 -6 -1 -4 -9 3 -7 -1 -27 -10 -43 -8 -16 -15 -37 -15 -46 0 -10 -4 -18 -8
-18 -4 0 -8 -8 -9 -17 0 -10 -4 -29 -7 -43 -11 -42 -35 -165 -40 -206 -2 -22
-5 -39 -6 -39 -1 0 -3 -16 -4 -35 -1 -19 -5 -41 -10 -49 -6 -9 -5 -12 2 -7 7
4 10 -1 7 -14 -2 -11 -5 -52 -6 -91 -1 -38 -6 -72 -11 -75 -5 -3 -4 -11 2 -19
15 -18 9 -38 -15 -52 -26 -16 -38 -16 -29 0 4 7 3 9 -2 4 -5 -5 -10 -13 -10
-18 -1 -5 -2 -12 -3 -15 0 -4 -7 -1 -15 5 -11 9 -14 8 -12 -6 0 -11 -5 -18
-16 -17 -10 1 -16 -1 -15 -5 3 -12 -52 -73 -61 -67 -5 3 -9 0 -9 -7 -1 -16
-59 -137 -64 -133 -2 3 -4 -5 -5 -17 -1 -12 -4 -40 -8 -62 -7 -38 -10 -105 -6
-115 1 -3 3 -18 5 -35 1 -16 5 -37 8 -45 3 -8 13 -37 23 -65 10 -27 23 -57 31
-66 7 -8 13 -20 13 -26 0 -6 7 -14 16 -17 8 -3 12 -10 9 -16 -3 -5 -1 -10 5
-10 6 0 8 -5 4 -12 -4 -6 -3 -8 3 -5 14 9 57 -29 48 -42 -4 -7 0 -8 10 -5 9 4
24 -1 34 -10 10 -9 29 -19 41 -21 28 -5 40 -21 35 -47 -2 -10 0 -18 6 -18 5 0
9 -7 9 -15 0 -8 4 -23 9 -33 12 -23 33 -76 32 -80 -1 -1 10 -24 24 -51 36 -71
68 -169 59 -182 -4 -7 -3 -9 3 -6 10 6 53 -73 53 -98 0 -8 4 -15 8 -15 8 0 36
-51 32 -59 -1 -2 2 -7 7 -10 5 -3 31 -37 58 -76 27 -38 88 -108 135 -155 290
-291 690 -384 1053 -246 258 98 482 309 617 583 48 97 99 237 104 284 1 14 6
31 11 38 5 8 4 12 -1 9 -5 -4 -9 64 -9 162 0 92 4 166 8 163 5 -3 4 4 -3 16
-8 15 -8 26 -1 34 5 7 7 18 3 24 -10 16 -8 55 3 73 5 8 4 11 -2 7 -6 -4 -10 9
-9 32 0 22 5 37 9 34 5 -3 5 3 0 13 -10 24 -10 55 1 73 5 8 5 12 0 8 -5 -3 -9
23 -10 58 0 42 4 62 10 57 6 -3 5 1 -1 10 -7 8 -10 18 -6 21 3 4 2 7 -3 7 -5
0 -11 11 -12 26 -1 14 2 23 7 20 4 -3 7 6 5 19 -1 14 2 25 7 25 5 0 9 9 9 19
0 11 5 23 10 26 6 4 8 11 5 16 -4 5 -2 9 3 9 5 0 9 6 9 13 0 6 17 65 37 130
21 64 39 123 41 130 14 65 18 76 25 72 4 -2 6 7 4 20 -1 14 1 25 5 25 4 0 8
12 9 27 1 15 6 31 11 36 5 5 7 16 4 23 -3 8 0 14 7 14 6 0 9 4 5 10 -3 5 8 64
24 132 16 68 32 137 35 153 2 17 9 55 16 85 24 125 8 255 -45 346 -14 23 -22
44 -20 48 3 3 2 4 -1 1 -8 -5 -44 33 -44 47 0 4 -4 7 -9 5 -5 -1 -24 12 -42
28 -49 44 -214 115 -299 130 -16 3 -45 8 -62 11 -18 4 -39 7 -45 7 -7 0 -13 3
-13 6 0 3 -24 6 -53 5 -28 0 -56 2 -62 5 -5 3 -25 4 -43 2 -18 -1 -40 3 -49
11 -9 7 -14 8 -10 2 8 -13 -131 -13 -152 0 -9 6 -12 5 -8 -1z"/>
<path d="M2870 5096 c0 -2 8 -10 18 -17 15 -13 16 -12 3 4 -13 16 -21 21 -21
13z"/>
<path d="M4396 5087 c3 -10 9 -15 12 -12 3 3 0 11 -7 18 -10 9 -11 8 -5 -6z"/>
<path d="M4475 5061 c-3 -5 -2 -12 3 -15 5 -3 9 1 9 9 0 17 -3 19 -12 6z"/>
<path d="M2995 5029 c-4 -6 -5 -12 -2 -15 2 -3 7 2 10 11 7 17 1 20 -8 4z"/>
<path d="M2986 4958 c3 -5 10 -6 15 -3 13 9 11 12 -6 12 -8 0 -12 -4 -9 -9z"/>
<path d="M2226 4863 c-3 -16 -10 -56 -15 -91 -6 -34 -12 -66 -15 -71 -3 -5
-34 -13 -68 -17 -35 -4 -66 -9 -70 -10 -5 -1 -20 -2 -34 -3 -27 -1 -29 -22 -3
-27 7 -1 28 -5 44 -7 17 -3 51 -9 78 -13 26 -3 49 -10 52 -14 2 -4 7 -27 10
-51 19 -157 36 -188 49 -92 4 27 9 66 12 88 8 55 16 61 82 69 77 9 126 17 131
22 7 7 -46 22 -124 36 -56 10 -80 18 -80 29 -1 14 -17 138 -21 152 -1 4 -2 12
-3 17 -2 21 -20 9 -25 -17z"/>
<path d="M5042 4179 c-28 -11 -44 -43 -40 -82 2 -25 10 -36 37 -49 30 -15 37
-15 62 -3 35 19 42 30 41 67 -1 52 -51 85 -100 67z"/>
<path d="M4793 3935 c0 -8 4 -12 9 -9 5 3 6 10 3 15 -9 13 -12 11 -12 -6z"/>
<path d="M4710 3840 c0 -5 5 -10 11 -10 5 0 7 5 4 10 -3 6 -8 10 -11 10 -2 0
-4 -4 -4 -10z"/>
<path d="M2070 3781 c0 -6 4 -13 10 -16 6 -3 7 1 4 9 -7 18 -14 21 -14 7z"/>
<path d="M2016 3678 c3 -5 10 -6 15 -3 13 9 11 12 -6 12 -8 0 -12 -4 -9 -9z"/>
<path d="M5155 3589 c-4 -6 -5 -12 -2 -15 2 -3 7 2 10 11 7 17 1 20 -8 4z"/>
<path d="M4595 3520 c3 -5 8 -10 11 -10 2 0 4 5 4 10 0 6 -5 10 -11 10 -5 0
-7 -4 -4 -10z"/>
<path d="M4925 3479 c-3 -4 2 -6 10 -5 21 3 28 13 10 13 -9 0 -18 -4 -20 -8z"/>
<path d="M2075 3440 c3 -5 8 -10 11 -10 2 0 4 5 4 10 0 6 -5 10 -11 10 -5 0
-7 -4 -4 -10z"/>
<path d="M4730 3446 c0 -2 7 -7 16 -10 8 -3 12 -2 9 4 -6 10 -25 14 -25 6z"/>
<path d="M4953 3385 c0 -8 4 -12 9 -9 5 3 6 10 3 15 -9 13 -12 11 -12 -6z"/>
<path d="M4874 3320 c0 -13 4 -16 10 -10 7 7 7 13 0 20 -6 6 -10 3 -10 -10z"/>
<path d="M4950 3320 c0 -5 5 -10 11 -10 5 0 7 5 4 10 -3 6 -8 10 -11 10 -2 0
-4 -4 -4 -10z"/>
<path d="M1510 3200 c0 -5 5 -10 11 -10 5 0 7 5 4 10 -3 6 -8 10 -11 10 -2 0
-4 -4 -4 -10z"/>
<path d="M4675 3189 c-4 -6 -5 -12 -2 -15 2 -3 7 2 10 11 7 17 1 20 -8 4z"/>
<path d="M1913 3165 c0 -8 4 -12 9 -9 5 3 6 10 3 15 -9 13 -12 11 -12 -6z"/>
<path d="M1976 3158 c3 -5 10 -6 15 -3 13 9 11 12 -6 12 -8 0 -12 -4 -9 -9z"/>
<path d="M5116 3153 c-6 -14 -5 -15 5 -6 7 7 10 15 7 18 -3 3 -9 -2 -12 -12z"/>
<path d="M5166 3162 c-3 -5 1 -9 9 -9 8 0 15 4 15 9 0 4 -4 8 -9 8 -6 0 -12
-4 -15 -8z"/>
<path d="M1476 3133 c-6 -14 -5 -15 5 -6 7 7 10 15 7 18 -3 3 -9 -2 -12 -12z"/>
<path d="M5104 3082 c4 -3 14 -7 22 -8 9 -1 13 0 10 4 -4 3 -14 7 -22 8 -9 1
-13 0 -10 -4z"/>
<path d="M1593 3065 c0 -8 4 -12 9 -9 5 3 6 10 3 15 -9 13 -12 11 -12 -6z"/>
<path d="M1510 3016 c0 -2 8 -10 18 -17 15 -13 16 -12 3 4 -13 16 -21 21 -21
13z"/>
<path d="M5115 3011 c-3 -5 -2 -12 3 -15 5 -3 9 1 9 9 0 17 -3 19 -12 6z"/>
<path d="M1593 2995 c0 -8 4 -12 9 -9 5 3 6 10 3 15 -9 13 -12 11 -12 -6z"/>
<path d="M5164 3002 c4 -3 14 -7 22 -8 9 -1 13 0 10 4 -4 3 -14 7 -22 8 -9 1
-13 0 -10 -4z"/>
<path d="M5233 2995 c0 -8 4 -12 9 -9 5 3 6 10 3 15 -9 13 -12 11 -12 -6z"/>
<path d="M2166 2838 c3 -5 10 -6 15 -3 13 9 11 12 -6 12 -8 0 -12 -4 -9 -9z"/>
<path d="M5065 2800 c-3 -6 1 -7 9 -4 18 7 21 14 7 14 -6 0 -13 -4 -16 -10z"/>
<path d="M2036 2707 c3 -10 9 -15 12 -12 3 3 0 11 -7 18 -10 9 -11 8 -5 -6z"/>
<path d="M1536 2638 c3 -5 10 -6 15 -3 13 9 11 12 -6 12 -8 0 -12 -4 -9 -9z"/>
<path d="M4886 2542 c-3 -5 -13 -62 -22 -128 -9 -65 -18 -120 -19 -122 -1 -1
-59 -11 -129 -21 -183 -27 -183 -34 -1 -64 111 -18 126 -23 130 -41 5 -22 9
-51 21 -146 4 -30 8 -61 9 -68 0 -7 6 -17 12 -23 11 -11 15 -1 28 76 3 17 7
39 9 50 2 11 7 43 11 72 5 36 12 54 23 57 25 7 71 15 122 21 92 11 120 17 126
26 6 10 -7 16 -56 23 -19 3 -45 8 -57 10 -50 10 -119 20 -130 18 -13 -3 -19
13 -28 83 -7 58 -16 113 -20 135 -2 8 -4 23 -4 33 -1 18 -16 23 -25 9z"/>
<path d="M2150 2493 c-14 -2 -32 -7 -40 -10 -8 -3 -19 -5 -23 -4 -5 1 -6 -2
-3 -7 3 -5 -1 -21 -9 -36 -8 -14 -11 -24 -6 -22 4 3 13 -6 19 -19 7 -14 19
-25 27 -25 9 0 14 -4 11 -8 -3 -5 1 -9 9 -9 8 0 15 4 15 9 0 5 4 7 9 3 5 -3
12 -1 16 5 4 6 12 7 18 4 7 -4 9 -4 5 1 -4 4 0 14 10 22 9 8 11 12 5 8 -9 -4
-12 6 -9 41 2 25 0 41 -4 34 -4 -7 -13 -9 -19 -6 -6 4 -9 12 -6 17 4 5 5 8 3
8 -2 -1 -14 -4 -28 -6z"/>
<path d="M2260 2440 c-9 -6 -10 -10 -3 -10 6 0 15 5 18 10 8 12 4 12 -15 0z"/>
<path d="M1816 2358 c3 -5 10 -6 15 -3 13 9 11 12 -6 12 -8 0 -12 -4 -9 -9z"/>
<path d="M1986 2358 c3 -5 10 -6 15 -3 13 9 11 12 -6 12 -8 0 -12 -4 -9 -9z"/>
<path d="M2430 2341 c0 -6 4 -13 10 -16 6 -3 7 1 4 9 -7 18 -14 21 -14 7z"/>
<path d="M2285 2240 c-3 -6 1 -7 9 -4 18 7 21 14 7 14 -6 0 -13 -4 -16 -10z"/>
<path d="M2136 2198 c3 -5 10 -6 15 -3 13 9 11 12 -6 12 -8 0 -12 -4 -9 -9z"/>
</g>
</svg>
