<?xml version="1.0" standalone="no"?>
<!DOCTYPE svg PUBLIC "-//W3C//DTD SVG 20010904//EN"
 "http://www.w3.org/TR/2001/REC-SVG-20010904/DTD/svg10.dtd">
<svg version="1.0" xmlns="http://www.w3.org/2000/svg"
 width="700.000000pt" height="700.000000pt" viewBox="0 0 700.000000 700.000000"
 preserveAspectRatio="xMidYMid meet">
<metadata>
Created by potrace 1.14, written by Peter Selinger 2001-2017
</metadata>
<g transform="translate(0.000000,700.000000) scale(0.100000,-0.100000)"
fill="#000000" stroke="none">
<path d="M3205 6083 c-684 -89 -1256 -392 -1694 -899 -328 -378 -534 -829
-613 -1339 -28 -185 -30 -512 -4 -690 46 -315 125 -567 265 -843 265 -520 687
-931 1214 -1182 223 -106 483 -186 732 -226 135 -22 523 -30 668 -14 1205 128
2165 1058 2331 2258 71 511 -15 1033 -249 1507 -212 431 -516 776 -917 1042
-217 143 -526 280 -775 342 -131 33 -251 57 -256 50 -4 -4 -433 -773 -455
-815 -9 -18 10 -46 164 -243 l174 -222 -95 -220 c-52 -121 -95 -222 -95 -224
0 -3 11 -5 24 -5 13 0 63 -11 112 -26 396 -114 654 -473 631 -879 -7 -122 -27
-204 -78 -313 -146 -315 -443 -505 -789 -505 -346 0 -643 190 -789 505 -60
129 -76 202 -75 353 0 139 13 206 61 320 60 143 193 302 324 389 78 51 200
103 290 122 l76 17 58 219 58 219 -25 27 c-117 129 -356 391 -371 409 -19 21
-18 24 88 410 59 213 113 405 120 426 l13 37 -47 -1 c-25 -1 -59 -4 -76 -6z"/>
</g>
</svg>
