<?xml version="1.0" standalone="no"?>
<!DOCTYPE svg PUBLIC "-//W3C//DTD SVG 20010904//EN"
 "http://www.w3.org/TR/2001/REC-SVG-20010904/DTD/svg10.dtd">
<svg version="1.0" xmlns="http://www.w3.org/2000/svg"
 width="700.000000pt" height="700.000000pt" viewBox="0 0 700.000000 700.000000"
 preserveAspectRatio="xMidYMid meet">
<metadata>
Created by potrace 1.14, written by Peter Selinger 2001-2017
</metadata>
<g transform="translate(0.000000,700.000000) scale(0.100000,-0.100000)"
fill="#000000" stroke="none">
<path d="M3685 5677 c-126 -225 -228 -415 -228 -421 0 -6 77 -109 171 -228
l170 -218 -90 -207 c-49 -115 -92 -213 -94 -219 -3 -8 23 -18 73 -29 269 -59
489 -236 609 -488 192 -407 24 -911 -377 -1131 -427 -234 -971 -69 -1193 363
-130 254 -134 526 -11 771 68 136 205 283 334 360 76 45 248 110 292 110 15 0
31 6 36 13 10 13 113 394 113 418 0 8 -87 109 -193 225 -105 116 -198 218
-205 226 -10 13 8 88 103 432 63 229 115 419 115 423 0 10 -156 -7 -294 -32
-400 -74 -779 -244 -1119 -502 -130 -99 -369 -338 -470 -470 -278 -365 -452
-776 -522 -1233 -23 -147 -31 -448 -16 -595 73 -724 452 -1398 1032 -1835 754
-567 1748 -687 2619 -315 548 234 1022 678 1295 1215 138 273 218 526 266 845
21 135 18 547 -5 700 -84 579 -338 1088 -746 1495 -380 381 -836 619 -1391
728 l-46 9 -228 -410z"/>
</g>
</svg>
